<mxfile host="app.diagrams.net" agent="Mozilla/5.0 (Windows NT 10.0; Win64; x64) AppleWebKit/537.36 (KHTML, like Gecko) Chrome/137.0.0.0 Safari/537.36" version="27.1.6">
  <diagram name="Page-1" id="wk6wAtFcDwRdvndeJLqF">
    <mxGraphModel dx="969" dy="479" grid="1" gridSize="10" guides="1" tooltips="1" connect="1" arrows="1" fold="1" page="1" pageScale="1" pageWidth="827" pageHeight="1169" math="0" shadow="0">
      <root>
        <mxCell id="0" />
        <mxCell id="1" parent="0" />
        <mxCell id="lNW7MkjH-JcjPd9_zLlk-6" style="edgeStyle=orthogonalEdgeStyle;rounded=0;orthogonalLoop=1;jettySize=auto;html=1;exitX=0.5;exitY=1;exitDx=0;exitDy=0;" edge="1" parent="1" target="lNW7MkjH-JcjPd9_zLlk-2">
          <mxGeometry relative="1" as="geometry">
            <mxPoint x="395" y="140.0000000000001" as="sourcePoint" />
          </mxGeometry>
        </mxCell>
        <mxCell id="lNW7MkjH-JcjPd9_zLlk-1" value="&lt;font style=&quot;font-size: 14px;&quot;&gt;User wants to access www.foobar.com&lt;/font&gt;" style="rounded=1;whiteSpace=wrap;html=1;" vertex="1" parent="1">
          <mxGeometry x="260" y="70" width="260" height="70" as="geometry" />
        </mxCell>
        <mxCell id="lNW7MkjH-JcjPd9_zLlk-14" style="edgeStyle=orthogonalEdgeStyle;rounded=0;orthogonalLoop=1;jettySize=auto;html=1;exitX=0.5;exitY=1;exitDx=0;exitDy=0;" edge="1" parent="1" source="lNW7MkjH-JcjPd9_zLlk-2">
          <mxGeometry relative="1" as="geometry">
            <mxPoint x="394.5882352941177" y="330" as="targetPoint" />
          </mxGeometry>
        </mxCell>
        <mxCell id="lNW7MkjH-JcjPd9_zLlk-2" value="&lt;font style=&quot;font-size: 14px;&quot;&gt;DNS server&lt;/font&gt;&lt;div&gt;&lt;font size=&quot;3&quot;&gt;www.foobar.com(8.8.8.8)&lt;/font&gt;&lt;/div&gt;" style="rounded=1;whiteSpace=wrap;html=1;" vertex="1" parent="1">
          <mxGeometry x="270" y="230" width="250" height="60" as="geometry" />
        </mxCell>
        <mxCell id="lNW7MkjH-JcjPd9_zLlk-65" style="edgeStyle=orthogonalEdgeStyle;rounded=0;orthogonalLoop=1;jettySize=auto;html=1;exitX=0.5;exitY=1;exitDx=0;exitDy=0;entryX=0.5;entryY=0;entryDx=0;entryDy=0;" edge="1" parent="1" source="lNW7MkjH-JcjPd9_zLlk-16" target="lNW7MkjH-JcjPd9_zLlk-64">
          <mxGeometry relative="1" as="geometry" />
        </mxCell>
        <mxCell id="lNW7MkjH-JcjPd9_zLlk-16" value="&lt;font style=&quot;font-size: 14px;&quot;&gt;Load-Balancer 1&lt;/font&gt;&lt;div&gt;&lt;font size=&quot;3&quot;&gt;(HAProxy) Active&lt;/font&gt;&lt;/div&gt;" style="rounded=1;whiteSpace=wrap;html=1;" vertex="1" parent="1">
          <mxGeometry x="250" y="330" width="280" height="60" as="geometry" />
        </mxCell>
        <mxCell id="lNW7MkjH-JcjPd9_zLlk-31" value="" style="swimlane;startSize=0;" vertex="1" parent="1">
          <mxGeometry x="180" y="530" width="210" height="270" as="geometry" />
        </mxCell>
        <mxCell id="lNW7MkjH-JcjPd9_zLlk-20" value="&lt;font style=&quot;font-size: 14px;&quot;&gt;Application Server&lt;/font&gt;" style="rounded=1;whiteSpace=wrap;html=1;" vertex="1" parent="lNW7MkjH-JcjPd9_zLlk-31">
          <mxGeometry x="42.5" y="137.5" width="120" height="60" as="geometry" />
        </mxCell>
        <mxCell id="lNW7MkjH-JcjPd9_zLlk-18" value="&lt;font style=&quot;font-size: 14px;&quot;&gt;&lt;br&gt;&lt;/font&gt;&lt;div&gt;&lt;font size=&quot;3&quot;&gt;Web server&lt;/font&gt;&lt;/div&gt;&lt;div&gt;&lt;font size=&quot;3&quot;&gt;(Nginx)&lt;/font&gt;&lt;/div&gt;" style="rounded=1;whiteSpace=wrap;html=1;" vertex="1" parent="lNW7MkjH-JcjPd9_zLlk-31">
          <mxGeometry x="40" y="40" width="125" height="55" as="geometry" />
        </mxCell>
        <mxCell id="lNW7MkjH-JcjPd9_zLlk-58" value="" style="swimlane;startSize=0;" vertex="1" parent="1">
          <mxGeometry x="450" y="530" width="210" height="270" as="geometry" />
        </mxCell>
        <mxCell id="lNW7MkjH-JcjPd9_zLlk-59" value="&lt;font style=&quot;font-size: 14px;&quot;&gt;Application Server&lt;/font&gt;" style="rounded=1;whiteSpace=wrap;html=1;" vertex="1" parent="lNW7MkjH-JcjPd9_zLlk-58">
          <mxGeometry x="42.5" y="137.5" width="120" height="60" as="geometry" />
        </mxCell>
        <mxCell id="lNW7MkjH-JcjPd9_zLlk-60" value="&lt;font style=&quot;font-size: 14px;&quot;&gt;&lt;br&gt;&lt;/font&gt;&lt;div&gt;&lt;font size=&quot;3&quot;&gt;Web server&lt;/font&gt;&lt;/div&gt;&lt;div&gt;&lt;font size=&quot;3&quot;&gt;(Nginx)&lt;/font&gt;&lt;/div&gt;" style="rounded=1;whiteSpace=wrap;html=1;" vertex="1" parent="lNW7MkjH-JcjPd9_zLlk-58">
          <mxGeometry x="40" y="40" width="125" height="55" as="geometry" />
        </mxCell>
        <mxCell id="lNW7MkjH-JcjPd9_zLlk-71" style="edgeStyle=orthogonalEdgeStyle;rounded=0;orthogonalLoop=1;jettySize=auto;html=1;exitX=0.25;exitY=1;exitDx=0;exitDy=0;entryX=0.5;entryY=0;entryDx=0;entryDy=0;" edge="1" parent="1" source="lNW7MkjH-JcjPd9_zLlk-64" target="lNW7MkjH-JcjPd9_zLlk-31">
          <mxGeometry relative="1" as="geometry" />
        </mxCell>
        <mxCell id="lNW7MkjH-JcjPd9_zLlk-64" value="&lt;font style=&quot;font-size: 14px;&quot;&gt;Load-Balancer 1&lt;/font&gt;&lt;div&gt;&lt;font size=&quot;3&quot;&gt;(HAProxy) Passive&lt;/font&gt;&lt;/div&gt;" style="rounded=1;whiteSpace=wrap;html=1;" vertex="1" parent="1">
          <mxGeometry x="255" y="420" width="280" height="60" as="geometry" />
        </mxCell>
        <mxCell id="lNW7MkjH-JcjPd9_zLlk-66" style="edgeStyle=orthogonalEdgeStyle;rounded=0;orthogonalLoop=1;jettySize=auto;html=1;exitX=0.5;exitY=1;exitDx=0;exitDy=0;" edge="1" parent="1" source="lNW7MkjH-JcjPd9_zLlk-58" target="lNW7MkjH-JcjPd9_zLlk-58">
          <mxGeometry relative="1" as="geometry" />
        </mxCell>
        <mxCell id="lNW7MkjH-JcjPd9_zLlk-62" value="&lt;font style=&quot;font-size: 14px;&quot;&gt;MySql Replica&lt;/font&gt;&lt;div&gt;&lt;font style=&quot;font-size: 14px;&quot;&gt;(slave)&lt;/font&gt;&lt;/div&gt;" style="rounded=1;whiteSpace=wrap;html=1;" vertex="1" parent="1">
          <mxGeometry x="450" y="910" width="120" height="60" as="geometry" />
        </mxCell>
        <mxCell id="lNW7MkjH-JcjPd9_zLlk-75" style="edgeStyle=orthogonalEdgeStyle;rounded=0;orthogonalLoop=1;jettySize=auto;html=1;exitX=1;exitY=0.5;exitDx=0;exitDy=0;entryX=0;entryY=0.5;entryDx=0;entryDy=0;startArrow=classic;startFill=0;" edge="1" parent="1" source="lNW7MkjH-JcjPd9_zLlk-40" target="lNW7MkjH-JcjPd9_zLlk-62">
          <mxGeometry relative="1" as="geometry" />
        </mxCell>
        <mxCell id="lNW7MkjH-JcjPd9_zLlk-76" value="" style="edgeStyle=orthogonalEdgeStyle;rounded=0;orthogonalLoop=1;jettySize=auto;html=1;startArrow=blockThin;startFill=1;" edge="1" parent="1" source="lNW7MkjH-JcjPd9_zLlk-40" target="lNW7MkjH-JcjPd9_zLlk-62">
          <mxGeometry relative="1" as="geometry" />
        </mxCell>
        <mxCell id="lNW7MkjH-JcjPd9_zLlk-40" value="&lt;font style=&quot;font-size: 14px;&quot;&gt;MySql Primary&lt;/font&gt;&lt;div&gt;&lt;font style=&quot;font-size: 14px;&quot;&gt;(Master)&lt;/font&gt;&lt;/div&gt;" style="rounded=1;whiteSpace=wrap;html=1;" vertex="1" parent="1">
          <mxGeometry x="240" y="910" width="120" height="60" as="geometry" />
        </mxCell>
        <mxCell id="lNW7MkjH-JcjPd9_zLlk-70" value="" style="swimlane;startSize=0;" vertex="1" parent="1">
          <mxGeometry x="210" y="870" width="410" height="160" as="geometry" />
        </mxCell>
        <mxCell id="lNW7MkjH-JcjPd9_zLlk-72" style="edgeStyle=orthogonalEdgeStyle;rounded=0;orthogonalLoop=1;jettySize=auto;html=1;exitX=0.75;exitY=1;exitDx=0;exitDy=0;entryX=0.351;entryY=-0.001;entryDx=0;entryDy=0;entryPerimeter=0;" edge="1" parent="1" source="lNW7MkjH-JcjPd9_zLlk-64" target="lNW7MkjH-JcjPd9_zLlk-58">
          <mxGeometry relative="1" as="geometry" />
        </mxCell>
        <mxCell id="lNW7MkjH-JcjPd9_zLlk-73" style="edgeStyle=orthogonalEdgeStyle;rounded=0;orthogonalLoop=1;jettySize=auto;html=1;exitX=0.5;exitY=1;exitDx=0;exitDy=0;entryX=0.383;entryY=-0.022;entryDx=0;entryDy=0;entryPerimeter=0;" edge="1" parent="1" source="lNW7MkjH-JcjPd9_zLlk-31" target="lNW7MkjH-JcjPd9_zLlk-70">
          <mxGeometry relative="1" as="geometry" />
        </mxCell>
        <mxCell id="lNW7MkjH-JcjPd9_zLlk-74" style="edgeStyle=orthogonalEdgeStyle;rounded=0;orthogonalLoop=1;jettySize=auto;html=1;exitX=0.5;exitY=1;exitDx=0;exitDy=0;entryX=0.627;entryY=-0.015;entryDx=0;entryDy=0;entryPerimeter=0;" edge="1" parent="1" source="lNW7MkjH-JcjPd9_zLlk-58" target="lNW7MkjH-JcjPd9_zLlk-70">
          <mxGeometry relative="1" as="geometry" />
        </mxCell>
      </root>
    </mxGraphModel>
  </diagram>
</mxfile>
